<?xml version="1.0" encoding="utf-8"?>
<!-- Generator: Adobe Illustrator 23.0.1, SVG Export Plug-In . SVG Version: 6.00 Build 0)  -->
<svg version="1.2" baseProfile="tiny" xmlns="http://www.w3.org/2000/svg" x="0px"
     y="0px" viewBox="0 0 368.6 235.7" xml:space="preserve">
<g id="Layer_1">
	<path fill="#FFFFFF" d="M70.8,94.1c19.6,0,37.3,7.9,50.1,20.7c12.8,12.8,20.7,30.5,20.7,50.1c0,19.6-7.9,37.3-20.7,50.1
		c-12.8,12.8-30.5,20.7-50.1,20.7c-19.6,0-37.3-7.9-50.1-20.7C7.9,202.2,0,184.5,0,164.9c0-19.6,7.9-37.3,20.7-50.1
		C33.6,102,51.3,94.1,70.8,94.1L70.8,94.1z M112.7,123c-10.7-10.7-25.6-17.4-41.9-17.4s-31.2,6.6-41.9,17.4s-17.4,25.6-17.4,41.9
		s6.6,31.2,17.4,41.9s25.6,17.4,41.9,17.4s31.2-6.6,41.9-17.4s17.4-25.5,17.4-41.9S123.5,133.7,112.7,123z"/>
	<path fill="#FFFFFF" d="M297.8,94.1c19.6,0,37.3,7.9,50.1,20.7c12.8,12.8,20.7,30.5,20.7,50.1c0,19.6-7.9,37.3-20.7,50.1
		c-12.8,12.8-30.5,20.7-50.1,20.7s-37.3-7.9-50.1-20.7C235,202.2,227,184.5,227,164.9c0-19.6,7.9-37.3,20.7-50.1
		C260.6,102,278.3,94.1,297.8,94.1L297.8,94.1z M339.8,123c-10.7-10.7-25.5-17.4-41.9-17.4c-16.4,0-31.2,6.6-41.9,17.4
		c-10.7,10.7-17.4,25.6-17.4,41.9s6.6,31.2,17.4,41.9c10.7,10.7,25.6,17.4,41.9,17.4c16.4,0,31.2-6.6,41.9-17.4s17.4-25.5,17.4-41.9
		S350.5,133.7,339.8,123z"/>
	<path fill="#FFFFFF" d="M105.6,55.2L105.6,55.2h146.7c2.6,0,4.7,1.7,5.5,4l45,103.9l0,0c1.3,2.9-0.1,6.3-3,7.6
		c-0.8,0.3-1.6,0.5-2.4,0.5H195.5c-1.9,0-3.6-0.9-4.6-2.3L101.3,64.7l0,0c-2.1-2.4-1.8-6,0.6-8.1C103,55.6,104.3,55.2,105.6,55.2
		L105.6,55.2L105.6,55.2z M248.5,66.7H118.2l80,92.9h90.6L248.5,66.7z"/>
	<path fill="#FFFFFF" d="M65.4,163.6c-1,3,0.6,6.3,3.6,7.2c3,1,6.3-0.6,7.2-3.6l49.2-147.7l0,0c0.8-2.4-0.1-5-2.1-6.5
		C109.2,0.5,98.8-2,90.9,1.3c-8,3.3-12.3,12.2-14.9,22.6c-6.3,24.7,20.4,24.7,20.5,24.7c3.2,0,5.8-2.5,5.8-5.7
		c0-3.2-2.5-5.8-5.7-5.8c0,0-12.1,0-9.4-10.3c1.8-7.2,4.3-13.1,8.2-14.8c3.6-1.5,9.2,0.3,18.1,7.6L65.4,163.6z"/>
	<path fill="#FFFFFF" d="M196.7,163.3c-1.1,3,0.4,6.3,3.4,7.4c3,1.1,6.3-0.4,7.4-3.4l46.4-122.8c1.1-3-0.4-6.3-3.4-7.4
		c-3-1.1-6.3,0.4-7.4,3.4L196.7,163.3z"/>
	<path fill-rule="evenodd" fill="#FFFFFF" d="M70.8,172.6c4.2,0,7.6-3.4,7.6-7.6c0-4.2-3.4-7.6-7.6-7.6c-4.2,0-7.6,3.4-7.6,7.6
		C63.2,169.1,66.6,172.6,70.8,172.6z"/>
	<path fill-rule="evenodd" fill="#FFFFFF" d="M297.8,172.6c4.2,0,7.6-3.4,7.6-7.6c0-4.2-3.4-7.6-7.6-7.6c-4.2,0-7.6,3.4-7.6,7.6
		C290.2,169.1,293.6,172.6,297.8,172.6z"/>
	<circle fill-rule="evenodd" fill="#FFFFFF" cx="199.5" cy="164.9" r="14.1"/>
	<polygon fill="#FFFFFF" points="196.9,121.2 201.9,152.2 190.5,154 185.5,123 	"/>
	<path fill="#FFFFFF" d="M183.1,116.3c-3.2,0-5.8,2.6-5.8,5.8s2.6,5.8,5.8,5.8h16.5c3.2,0,5.8-2.6,5.8-5.8s-2.6-5.8-5.8-5.8H183.1z"
		/>
	<polygon fill="#FFFFFF" points="182.5,201.9 187.5,171 198.8,172.8 193.8,203.7 	"/>
	<path fill="#FFFFFF" d="M180.1,197.2c-3.2,0-5.8,2.6-5.8,5.8c0,3.2,2.6,5.8,5.8,5.8h16.5c3.2,0,5.8-2.6,5.8-5.8
		c0-3.2-2.6-5.8-5.8-5.8H180.1z"/>
	<path fill="#FFFFFF" d="M230,33.6c-3.2,0-5.8,2.6-5.8,5.8c0,3.2,2.6,5.8,5.8,5.8h36.6c3.2,0,5.8-2.6,5.8-5.8c0-3.2-2.6-5.8-5.8-5.8
		H230z"/>
</g>
<g id="Master_Layer_4">
</g>
</svg>
